<?xml version="1.0" standalone="no"?><!DOCTYPE svg PUBLIC "-//W3C//DTD SVG 1.1//EN" "http://www.w3.org/Graphics/SVG/1.1/DTD/svg11.dtd"><svg t="1627982334209" class="icon" viewBox="0 0 1024 1024" version="1.1" xmlns="http://www.w3.org/2000/svg" p-id="3871" xmlns:xlink="http://www.w3.org/1999/xlink" width="200" height="200"><defs><style type="text/css"></style></defs><path d="M983.167411 336.19158a500.223375 500.223375 0 0 0-267.199666-263.551671A503.74337 503.74337 0 0 0 520.703989 33.727958c-55.551931 0-109.823863 8.703989-161.535798 26.111967C238.464342 4.287995 99.072516 0 59.072566 0 56.19257 0 49.280578 0 46.720582 0.256a47.487941 47.487941 0 0 0-43.199946 65.151918l85.119893 211.071736A489.215388 489.215388 0 0 0 18.752617 528.831339c0 67.199916 13.247983 131.903835 39.48795 192.831759a488.25539 488.25539 0 0 0 107.519866 157.375803 500.223375 500.223375 0 0 0 159.6798 106.047868 503.551371 503.551371 0 0 0 195.199756 38.911951 507.455366 507.455366 0 0 0 195.711756-38.911951 499.007376 499.007376 0 0 0 267.071666-263.615671 488.31939 488.31939 0 0 0-0.128-385.279518z m-87.93589 348.095565a400.767499 400.767499 0 0 1-87.295891 127.99984 399.8715 399.8715 0 0 1-129.407838 86.079892H678.399792a412.031485 412.031485 0 0 1-158.847801 31.615961 410.239487 410.239487 0 0 1-158.591802-31.615961 406.399492 406.399492 0 0 1-216.703729-213.951733v-0.127999a394.879506 394.879506 0 0 1-31.93596-156.607805c0-72.31991 19.647975-143.295821 56.703929-205.055743l17.471978-28.863964-12.543984-31.231961-67.967915-168.51179c19.711975 0.831999 47.551941 2.751997 79.103901 7.359991 57.983928 8.447989 109.247863 22.847971 152.191809 42.559947l25.151969 11.647986 26.367967-8.959989a408.31949 408.31949 0 0 1 131.007836-21.119974 409.727488 409.727488 0 0 1 288.12764 117.823853 397.247503 397.247503 0 0 1 87.167891 127.74384l0.128 0.128 0.128 0.128a396.799504 396.799504 0 0 1-0.128 312.959609zM735.359721 318.975601a48.959939 48.959939 0 0 0-49.151939 48.44794v71.93591c0 26.687967 21.951973 48.447939 49.151939 48.447939 27.135966 0 49.151939-21.759973 49.151938-48.447939V367.423541a48.895939 48.895939 0 0 0-49.151938-48.44794z m-232.12771 0a48.895939 48.895939 0 0 0-49.151939 48.44794v71.93591c0 26.687967 22.143972 48.447939 49.151939 48.447939 27.199966 0 49.151939-21.759973 49.151939-48.447939V367.423541a48.895939 48.895939 0 0 0-49.151939-48.44794z" fill="#000000" p-id="3872"></path></svg>