<?xml version="1.0" standalone="no"?><!DOCTYPE svg PUBLIC "-//W3C//DTD SVG 1.1//EN" "http://www.w3.org/Graphics/SVG/1.1/DTD/svg11.dtd"><svg t="1627982182574" class="icon" viewBox="0 0 1024 1024" version="1.1" xmlns="http://www.w3.org/2000/svg" p-id="5935" xmlns:xlink="http://www.w3.org/1999/xlink" width="200" height="200"><defs><style type="text/css"></style></defs><path d="M512 67.488c-81.056 0-159.36 21.536-228.288 62.496C245.152 87.68 189.024 64 125.344 64 113.664 64 102.912 70.336 97.28 80.608c-5.632 10.24-5.216 22.72 1.056 32.576 0.32 0.512 31.136 49.664 40.864 128.192-8.128 27.296-26.72 65.12-37.44 94.336-22.912 62.464-37.536 116.416-37.536 179.52 0 246.88 200.864 447.776 447.744 447.776s447.712-200.864 447.712-447.776C959.712 268.352 758.88 67.488 512 67.488zM576 480c0 26.496-21.504 48-48 48S480 506.496 480 480l0-64c0-26.528 21.504-48 48-48S576 389.472 576 416L576 480zM767.008 480c0 26.496-21.504 48-48 48s-48-21.504-48-48l0-64c0-26.528 21.504-48 48-48s48 21.472 48 48L767.008 480z" p-id="5936"></path></svg>