<?xml version="1.0" standalone="no"?><!DOCTYPE svg PUBLIC "-//W3C//DTD SVG 1.1//EN" "http://www.w3.org/Graphics/SVG/1.1/DTD/svg11.dtd"><svg t="1627982177562" class="icon" viewBox="0 0 1024 1024" version="1.1" xmlns="http://www.w3.org/2000/svg" p-id="5786" xmlns:xlink="http://www.w3.org/1999/xlink" width="200" height="200"><defs><style type="text/css"></style></defs><path d="M528 528c-26.528 0-48-21.472-48-48l0-64c0-26.528 21.472-48 48-48 26.496 0 48 21.472 48 48l0 64C576 506.528 554.496 528 528 528z" p-id="5787"></path><path d="M719.008 528c-26.496 0-48-21.472-48-48l0-64c0-26.528 21.504-48 48-48s48 21.472 48 48l0 64C767.008 506.528 745.504 528 719.008 528z" p-id="5788"></path><path d="M512 67.52c-81.152 0-159.488 21.696-228.48 62.72C244.96 87.968 189.056 64 125.344 64 113.696 64 103.008 70.368 97.376 80.544S92.096 103.232 98.272 113.088C98.624 113.6 131.808 167.392 140.16 249.92c1.664 16.48 15.584 28.768 31.808 28.768 1.088 0 2.144-0.032 3.264-0.16 17.568-1.792 30.4-17.472 28.608-35.072C199.488 200.48 189.44 164.16 179.36 136.672 203.84 144.864 230.336 160.512 249.504 190.08 249.6 190.24 249.76 190.304 249.856 190.464 249.952 190.592 249.952 190.72 250.016 190.848 251.168 192.512 252.8 193.504 254.176 194.88c1.536 1.536 2.848 3.328 4.64 4.48C260.64 200.544 262.72 201.056 264.704 201.856c1.824 0.704 3.488 1.728 5.376 2.112C272.16 204.384 274.24 204.096 276.32 204.096c2.016 0 4 0.32 6.016-0.064C284.32 203.648 286.08 202.592 287.968 201.824 289.92 201.056 291.936 200.704 293.76 199.552c0.128-0.096 0.192-0.256 0.352-0.352C294.24 199.136 294.4 199.104 294.528 199.04 358.624 154.88 433.824 131.52 512 131.52c211.584 0 383.712 172.128 383.712 383.744S723.584 899.008 512 899.008 128.256 726.848 128.256 515.264c0-54.176 11.04-106.528 32.864-155.616 7.168-16.128-0.096-35.04-16.256-42.24-16.128-7.168-35.04 0.096-42.24 16.256-25.44 57.312-38.368 118.4-38.368 181.568 0 246.88 200.864 447.744 447.744 447.744s447.712-200.864 447.712-447.744S758.88 67.52 512 67.52z" p-id="5789"></path></svg>